<svg viewBox="0 0 256 256" xmlns="http://www.w3.org/2000/svg"><path fill="none" d="M0 0h256v256H0z"></path><path d="M45.4 177A95.9 95.9 0 1 1 79 210.6h0L45.8 220a7.9 7.9 0 0 1-9.8-9.8l9.4-33.2Z" fill="none" stroke="#1c274c" stroke-linecap="round" stroke-linejoin="round" stroke-width="24" class="stroke-000000"></path><path d="M80 103.5A23.9 23.9 0 0 1 104 80h3.5a7.9 7.9 0 0 1 6.8 3.9l7.4 12.3a7.8 7.8 0 0 1 .3 7.7l-4.7 9.6h0a36 36 0 0 0 25.2 25.2h0l9.6-4.7a7.8 7.8 0 0 1 7.7.3l12.3 7.4a7.9 7.9 0 0 1 3.9 6.8v3.5a23.9 23.9 0 0 1-23.5 24A71.9 71.9 0 0 1 80 103.5Z" fill="none" stroke="#1c274c" stroke-linecap="round" stroke-linejoin="round" stroke-width="24" class="stroke-000000"></path></svg>